<?xml version="1.0" standalone="no"?>
<!DOCTYPE svg PUBLIC "-//W3C//DTD SVG 20010904//EN"
 "http://www.w3.org/TR/2001/REC-SVG-20010904/DTD/svg10.dtd">
<svg version="1.0" xmlns="http://www.w3.org/2000/svg"
 width="227.000000pt" height="227.000000pt" viewBox="0 0 227.000000 227.000000"
 preserveAspectRatio="xMidYMid meet">
<metadata>
Created by potrace 1.11, written by Peter Selinger 2001-2013
</metadata>
<g transform="translate(0.000000,227.000000) scale(0.100000,-0.100000)"
fill="#000000" stroke="none">
<path d="M1630 2111 c-40 -13 -92 -41 -135 -74 -57 -43 -145 -129 -145 -142 0
-5 -8 -15 -18 -21 -27 -17 -128 -173 -174 -269 l-40 -84 -64 65 c-84 84 -206
174 -291 214 -252 119 -446 77 -544 -117 -33 -66 -34 -72 -34 -183 0 -107 2
-121 32 -192 95 -228 262 -423 663 -774 25 -21 50 -43 56 -49 6 -5 25 -21 43
-35 18 -14 46 -35 61 -48 15 -12 32 -22 38 -22 5 0 12 -6 15 -14 6 -15 172
-142 307 -235 90 -62 138 -68 189 -25 50 42 42 56 -79 139 -419 290 -642 484
-919 800 -14 17 -49 62 -77 100 -148 206 -197 349 -159 468 47 151 167 167
346 47 131 -89 275 -224 340 -320 33 -48 82 -79 94 -59 4 5 17 9 31 9 39 0 54
23 85 130 66 228 269 544 378 590 28 11 35 10 66 -11 33 -23 74 -85 104 -159
10 -24 14 -77 15 -165 1 -113 -3 -143 -27 -227 -69 -244 -184 -485 -404 -851
-46 -76 -63 -115 -61 -135 3 -26 6 -27 51 -25 26 1 58 8 70 16 22 14 150 223
262 425 90 164 195 393 198 433 1 11 4 19 8 19 4 0 22 53 40 118 31 108 34
128 34 257 0 120 -3 148 -23 198 -31 81 -67 132 -124 174 -43 31 -58 36 -116
39 -37 2 -78 0 -92 -5z"/>
</g>
</svg>
